HIERARCHY
ROOT base
{
	OFFSET 0.0 0.0 0.0
	CHANNELS 6 Xposition Yposition Zposition Zrotation Yrotation Xrotation
	JOINT root
	{
		OFFSET 0 0 0
		CHANNELS 6 Xposition Yposition Zposition Zrotation Yrotation Xrotation
		JOINT chest
		{
			OFFSET 0 4.72302 0
			CHANNELS 3 Zrotation Yrotation Xrotation
			JOINT neck
			{
				OFFSET 0 4.47788 0
				CHANNELS 3 Zrotation Yrotation Xrotation
				End Site
				{
					OFFSET 0.0 0.0 0.0
				}
			}
			JOINT right_shoulder
			{
				OFFSET -0.481 4.87 3.6622
				CHANNELS 3 Zrotation Yrotation Xrotation
				JOINT right_elbow
				{
					OFFSET 0 -5.49576 0
					CHANNELS 3 Zrotation Yrotation Xrotation
					JOINT right_wrist
					{
						OFFSET 0 -5.17894 0
						CHANNELS 3 Zrotation Yrotation Xrotation
						End Site
						{
							OFFSET 0.0 0.0 0.0
						}
					}
				}
			}
			JOINT left_shoulder
			{
				OFFSET -0.481 4.87 -3.6622
				CHANNELS 3 Zrotation Yrotation Xrotation
				JOINT left_elbow
				{
					OFFSET 0 -5.49576 0
					CHANNELS 3 Zrotation Yrotation Xrotation
					JOINT left_wrist
					{
						OFFSET 0 -5.17894 0
						CHANNELS 3 Zrotation Yrotation Xrotation
						End Site
						{
							OFFSET 0.0 0.0 0.0
						}
					}
				}
			}
		}
		JOINT right_hip
		{
			OFFSET 0 0 1.69774
			CHANNELS 3 Zrotation Yrotation Xrotation
			JOINT right_knee
			{
				OFFSET 0 -8.43092 0
				CHANNELS 3 Zrotation Yrotation Xrotation
				JOINT right_ankle
				{
					OFFSET 0 -8.1974 0
					CHANNELS 3 Zrotation Yrotation Xrotation
					End Site
					{
						OFFSET 0.0 0.0 0.0
					}
				}
			}
		}
		JOINT left_hip
		{
			OFFSET 0 0 -1.69774
			CHANNELS 3 Zrotation Yrotation Xrotation
			JOINT left_knee
			{
				OFFSET 0 -8.43092 0
				CHANNELS 3 Zrotation Yrotation Xrotation
				JOINT left_ankle
				{
					OFFSET 0 -8.1974 0
					CHANNELS 3 Zrotation Yrotation Xrotation
					End Site
					{
						OFFSET 0.0 0.0 0.0
					}
				}
			}
		}
	}
	JOINT red_arrow
	{
		OFFSET 0 0 0
		CHANNELS 3 Zrotation Yrotation Xrotation
		End Site
		{
			OFFSET 0.0 0.0 0.0
		}
	}
	JOINT blue_arrow
	{
		OFFSET 0 0 0
		CHANNELS 3 Zrotation Yrotation Xrotation
		End Site
		{
			OFFSET 0.0 0.0 0.0
		}
	}
}
MOTION
Frames: 8
Frame Time: 0.0333333333333333
0 18.08466 0 0 0 0 0 0 0 0 -90 0 0 0 0 0 0 0 0 0 -90 0 0 0 0 0 0 0 0 90 0 0 0 0 0 0 0 0 0 0 0 0 0 0 0 0 0 0 0 0 0 0 0 0 0 0 0 0 0 0
1.56886081695557 0 -0.0406099647283554 0 -8.1346098328447 0 0 16.0748409628868 0 -28.3587075528484 7.95138670365879E-16 -11.2719389802986 1.62448954601979 0.81394279632946 8.74852589957554 -4.12686916349189 -1.49340519268337 1.45900879372725 -0.867478125141725 20.3579866924957 -30.4806729855938 76.0882458822395 0 0 0 0 0 -21.5462600214889 -23.8657351385823 36.2616023119108 61.0486064619783 0 0 0 0 0 54.5312320273142 -3.1612063294024 10.7617203773771 -44.1344386994801 0 0 18.2017307978206 4.54829570408207 -1.16155896249001 36.4673499873794 4.20234783403404 14.207020579465 -97.8292229538212 0 0 -3.74514665606873 7.95010802864527 -19.096303633403 0 0 0 0 0 0
3.59500280618668 0 -0.0709633983671665 0 -8.47292204672157 0 0 16.5128148317337 0 -28.5118797890589 -5.65373581750747 -12.3938386258819 5.16224765301599 3.85583060123851 7.14378109455659 -7.01750184160429 -3.41581298198727 2.20579317770586 15.3656657945356 28.4465354323568 -33.2379191832138 80.6247414157461 0 0 0 0 0 -41.4541658172998 -25.3275741949383 44.3681378254313 48.1679727628852 0 0 0 0 0 42.4681948383159 -2.84392503732549 13.7758747481679 -33.2884227314854 0 0 19.6902738257964 10.6218541129959 -0.498078349889133 50.3826868021212 -0.905860568420537 19.3346645553601 -101.436812760206 0 0 -9.13116472596899 14.3201878462657 -29.4733475334234 0 0 0 0 0 0
5.87805588245392 0 -0.191347894072533 0 -8.53848027823254 0 0 17.0740450263023 0 -27.9506094782039 -1.1003469368847 -12.4075539980387 4.03446979047784 2.45250918984605 4.20133198648481 -3.45576731046807 -7.51623578542125 2.64369786418304 24.7830434321158 28.1877519119702 -31.9072752145043 91.0231580119569 0 0 0 0 0 -54.063095606315 -17.8679586088928 49.5192269326026 51.4268506762897 0 0 0 0 0 25.0041354904772 -2.39025566516277 10.8246326824559 -15.6896360801728 0 0 13.7672167361398 10.3827366038231 -0.113839100044631 60.3741883256149 -7.17058636410447 16.395558253105 -97.0290936133109 0 0 -17.0676945692012 18.4128213809056 -40.789097805161 0 0 0 0 0 0
7.88543413877487 0 -0.457382789254189 0 -8.33792654915736 0 0 17.5988355875015 0 -30.4145302573505 3.28737867121277 -12.4040752109456 2.07814437343285 1.79047692858659 2.48900031633688 -0.14069266233911 -7.1602528202439 2.48212507712436 27.5770607141122 26.319146787864 -32.2579757877331 104.653401557364 0 0 0 0 0 -63.3737496275207 -7.6241073386945 51.3062510324496 64.2973449595599 0 0 0 0 0 17.8759503055583 -0.175255912191375 8.59271996530258 -7.67469595710793 0 0 -2.48385046998341 4.87142729058433 -1.31097623061509 71.9067699930282 -8.5661474370932 11.5061317186084 -84.9586330479026 0 0 -15.2824641994023 16.6447925058832 -40.4401032691544 0 0 0 0 0 0
9.98567278385162 0 -0.855346655845642 0 -7.93822426071039 0 0 17.9677709579468 0 -30.917001012355 6.52534695850186 -11.6758916503147 -2.14091757905289 1.57029090954996 1.75712458269111 0.529102010956247 -5.62046526275316 1.76708752073011 27.6379798103167 23.6725066074565 -34.1043788195007 113.751329645037 0 0 0 0 0 -64.5357984988722 -0.886872995011613 47.560190939257 73.2619477546341 0 0 0 0 0 9.49881344200051 -0.0103425346739011 5.6429223867153 -0.693090991427811 0 0 -19.3124551053257 3.50727703231004 2.50547106212761 74.9995380789161 -4.08626492111342 8.32605462797151 -67.9609423171388 0 0 -10.6837558570509 15.1406682648684 -36.6353607039031 0 0 0 0 0 0
12.2026227235794 0 -1.29609730243683 0 -7.47235216343338 0 0 18.0215538620949 0 -30.0732049954651 7.67530770993196 -10.2673272664395 -3.58832860179512 1.73240400448774 1.09488919358868 -2.17061058624898 -4.29407666475836 0.479859641289098 28.2584084600721 22.7359941979145 -38.5382668964623 113.253463496057 0 0 0 0 0 -66.5543035956942 5.74623602988049 44.3197824679944 78.2130562613279 0 0 0 0 0 1.56976738491819 -0.941269365412054 2.43821223072708 3.85603781102469E-05 0 0 -20.1387811340055 2.69417334683056 2.70207316529299 73.4942120372808 -0.296151672055437 7.00034690888809 -51.2482275691155 0 0 -5.78618182314679 14.9704669231722 -32.6239504533172 0 0 0 0 0 0
14.4946118891239 0 -1.72264234274626 0 -6.99384962715748 0 0 17.8038012385368 0 -27.7668511543967 8.05929041608679 -8.75654837916135 -5.48800042197252 1.4865351079622 0.755577160238012 -5.04348890627269 -4.79731029019288 -1.88358004669547 29.5059439970184 24.1759564526289 -44.3077158695721 111.113776964956 0 0 0 0 0 -67.7909499655177 12.4300566137132 41.9172745586834 80.1778557987305 0 0 0 0 0 -5.42365126673863 -2.02836996024876 -0.104619198596702 -3.65531703387078 0 0 -19.4739068074681 2.01638364666277 2.31450429994062 69.1458561199061 1.31362566069801 6.00659080912775 -38.4372310637053 0 0 -1.79547430448686 14.7393518087812 -27.7103747409188 0 0 0 0 0 0
